# xmcd
#
# Track frame offsets:
#	150
#	20460
#	41510
#	61548
#	78055
#	92045
#	108483
#	123739
#	144278
#	165970
#
# Disc length: 2431 seconds
#
# Revision: 1
# Processed by: cddbd v1.5.1PL0 Copyright (c) Steve Scherf et al.
# Submitted via: audiograbber 1.82.02
#
DISCID=6e097d0a
DTITLE=Barrelhouse - Walking In Time
DYEAR=2002
DGENRE=Blues
TTITLE0=Walking In Time
TTITLE1=Last Night (I Lost The Best Friend I Ever Had)
TTITLE2=Hang On To The Things You Do
TTITLE3=Country Road
TTITLE4=Far East
TTITLE5=Parting Glass
TTITLE6=Last Night (I Heard You Crying In Your Sleep)
TTITLE7=Like You Did Before
TTITLE8=Dark As A Dungeon
TTITLE9=Hard Feelings
EXTD=
EXTT0=
EXTT1=
EXTT2=
EXTT3=
EXTT4=
EXTT5=
EXTT6=
EXTT7=
EXTT8=
EXTT9=
PLAYORDER=
